<svg version="1.1" id="Layer_1" xmlns="http://www.w3.org/2000/svg" xmlns:xlink="http://www.w3.org/1999/xlink" viewBox="0 0 509.287 509.287" xml:space="preserve" fill="#000000"><g id="SVGRepo_bgCarrier" stroke-width="0"></g><g id="SVGRepo_tracerCarrier" stroke-linecap="round" stroke-linejoin="round"></g><g id="SVGRepo_iconCarrier"> <circle style="fill:#4B5AA7;" cx="254.644" cy="254.644" r="254.644"></circle> <rect x="86.464" y="91.889" style="fill:#6EB1E1;" width="336.021" height="194.289"></rect> <circle style="fill:#FFFFFC;" cx="254.644" cy="188.864" r="69.171"></circle> <polygon style="fill:#F0582F;" points="234.977,140.715 234.977,237.351 300.079,188.864 "></polygon> <g> <circle style="fill:#F1F3F7;" cx="129.526" cy="328.223" r="31.534"></circle> <path style="fill:#F1F3F7;" d="M186.49,417.399c-1.017-30.517-26.109-55.269-56.964-55.269s-55.947,24.413-56.964,55.269H186.49z"></path> <circle style="fill:#F1F3F7;" cx="254.644" cy="328.223" r="31.534"></circle> <path style="fill:#F1F3F7;" d="M311.608,417.399c-1.017-30.517-26.109-55.269-56.964-55.269s-55.947,24.413-56.964,55.269H311.608z "></path> <circle style="fill:#F1F3F7;" cx="379.762" cy="328.223" r="31.534"></circle> <path style="fill:#F1F3F7;" d="M436.726,417.399c-1.017-30.517-26.109-55.269-56.964-55.269s-55.947,24.413-56.964,55.269H436.726z "></path> </g> </g></svg>